Coordinates
version=1
nRows=9
nColumns=63
inDegrees=yes

Units are S.I. units (second, meters, Newtons, ...)
If the header above contains a line with 'inDegrees', this indicates whether rotational values are in degrees (yes) or radians (no).

endheader
time	pelvis_tilt	pelvis_list	pelvis_rotation	pelvis_tx	pelvis_ty	pelvis_tz	hip_flexion_r	hip_adduction_r	hip_rotation_r	knee_angle_r	knee_angle_r_beta	ankle_angle_r	subtalar_angle_r	mtp_angle_r	hip_flexion_l	hip_adduction_l	hip_rotation_l	knee_angle_l	knee_angle_l_beta	ankle_angle_l	subtalar_angle_l	mtp_angle_l	L5_S1_Flex_Ext	L5_S1_Lat_Bending	L5_S1_axial_rotation	L4_L5_Flex_Ext	L4_L5_Lat_Bending	L4_L5_axial_rotation	L3_L4_Flex_Ext	L3_L4_Lat_Bending	L3_L4_axial_rotation	L2_L3_Flex_Ext	L2_L3_Lat_Bending	L2_L3_axial_rotation	L1_L2_Flex_Ext	L1_L2_Lat_Bending	L1_L2_axial_rotation	L1_T12_Flex_Ext	L1_T12_Lat_Bending	L1_T12_axial_rotation	Abs_r3	Abs_r2	Abs_r1	Abs_t1	Abs_t2	neck_flexion	neck_bending	neck_rotation	arm_flex_r	arm_add_r	arm_rot_r	elbow_flex_r	pro_sup_r	wrist_flex_r	wrist_dev_r	arm_flex_l	arm_add_l	arm_rot_l	elbow_flex_l	pro_sup_l	wrist_flex_l	wrist_dev_l
      2.56666667	      2.71300734	     -3.03503354	     84.58921621	      0.18048367	      0.65439210	      0.57739552	      6.87716538	      5.06428453	     -1.06317204	     14.49451606	      0.25297703	     34.52430958	     -1.40878979	      0.00000000	      2.79340599	     -2.24348483	     -1.15479891	      8.45687102	      0.14760024	     36.64494606	      4.40767693	      0.00000000	     -0.13257618	      1.15791118	      0.32204448	     -0.24620722	      1.54002187	      0.34217226	     -0.21780940	      2.81534524	      0.34217226	     -0.15152131	      2.81534524	      0.28178892	     -0.12311024	      2.36121247	      0.26166114	     -0.07575403	      1.79360441	      0.24153336	     -0.94697838	     13.09852282	      1.79111481	      0.00000000	      0.00000000	     20.55435273	     -3.07806138	      2.29269442	     -6.41930782	    -17.38329863	     17.23770704	     34.17437817	     86.56604113	    -11.99132186	     -2.38396527	      9.44246440	     -0.51691281	    175.75413950	      0.34602872	     21.20785213	    -17.20397198	     -4.34091416
      2.58333333	      2.71568617	     -2.94823639	     84.20846133	      0.18140958	      0.65441748	      0.57674968	      6.71214393	      5.21552888	     -0.13373262	     14.30202551	      0.24961743	     34.69739279	     -1.96958630	      0.00000000	      2.57466652	     -2.30776153	     -1.97893518	      8.34500505	      0.14564781	     37.16400978	      5.18389458	      0.00000000	     -0.12188187	      1.15738837	      0.38790178	     -0.22634682	      1.53932654	      0.41214565	     -0.20023972	      2.81407409	      0.41214565	     -0.13929879	      2.81407409	      0.33941406	     -0.11317950	      2.36014637	      0.31517020	     -0.06964330	      1.79279459	      0.29092634	     -0.87058999	     13.09260876	      2.15739335	      0.00000000	      0.00000000	     20.54553176	     -2.92498967	      2.06726211	     -6.62743146	    -17.23332343	     17.58820515	     33.85785894	     86.20791173	    -11.67840003	     -2.08007537	      9.35959493	     -0.25652451	    174.39071796	      0.34229445	     26.97351374	    -18.55431155	     -2.48889100
      2.60000000	      2.66965794	     -2.77161935	     83.79654898	      0.18236722	      0.65455423	      0.57580091	      6.43205310	      5.16430681	     -0.33204948	     14.13504982	      0.24670316	     35.05316712	     -1.16437668	      0.00000000	      2.23255236	     -2.26050211	     -2.23152471	      8.23168066	      0.14366993	     37.44726167	      5.11705723	      0.00000000	     -0.12229934	      1.14956896	      0.45522655	     -0.22712211	      1.52892672	      0.48367821	     -0.20092559	      2.79506198	      0.48367821	     -0.13977592	      2.79506198	      0.39832323	     -0.11356717	      2.34420103	      0.36987157	     -0.06988184	      1.78068233	      0.34141991	     -0.87357198	     13.00415403	      2.53183350	      0.00000000	      0.00000000	     20.33604751	     -2.74488960	      1.92197953	     -6.86452402	    -17.08648558	     17.75581774	     33.71946869	     85.97825036	    -11.05947840	     -1.46882378	      9.17699992	     -0.16760111	    174.71103810	      0.33548890	     29.09281061	    -19.97043749	     -1.46515090
      2.61666667	      2.62532182	     -2.60756755	     83.24727390	      0.18355288	      0.65468002	      0.57464082	      6.14063669	      5.12869365	     -0.39285128	     13.99759566	      0.24430413	     35.21783547	     -0.59033399	      0.00000000	      1.86896573	     -2.21516231	     -2.47703355	      8.13864916	      0.14204622	     37.60999248	      4.83753941	      0.00000000	     -0.12420643	      1.14100979	      0.53404396	     -0.23066376	      1.51754302	      0.56742171	     -0.20405874	      2.77425121	      0.56742171	     -0.14195553	      2.77425121	      0.46728847	     -0.11533809	      2.32674717	      0.43391072	     -0.07097155	      1.76742417	      0.40053297	     -0.88719410	     12.90733097	      2.97019232	      0.00000000	      0.00000000	     20.01026558	     -2.63089675	      1.89881362	     -7.10196188	    -16.98750641	     17.78535338	     33.80879018	     85.77741309	    -10.23975965	     -0.70675474	      8.86278848	     -0.17079625	    174.63338300	      0.33146975	     30.28479521	    -21.40130197	     -0.95734286
      2.63333333	      2.54212506	     -2.44736550	     82.61563740	      0.18483470	      0.65483952	      0.57342145	      5.86735361	      5.02315957	     -0.62300864	     13.92719043	      0.24307533	     35.30958469	      0.22065242	      0.00000000	      1.49076928	     -2.13587986	     -2.94180029	      8.03928793	      0.14031204	     37.65813470	      4.69417437	      0.00000000	     -0.13085934	      1.12757775	      0.61501123	     -0.24301888	      1.49967840	      0.65344943	     -0.21498881	      2.74159253	      0.65344943	     -0.14955914	      2.74159253	      0.53813482	     -0.12151598	      2.29935654	      0.49969662	     -0.07477303	      1.74661793	      0.46125842	     -0.93471519	     12.75538499	      3.42050794	      0.00000000	      0.00000000	     19.60546573	     -2.58408345	      1.96225994	     -7.25930031	    -16.92750983	     17.87667616	     33.98014957	     85.71329289	     -9.43380532	      0.04531322	      8.49634889	     -0.25240942	    174.43470932	      0.33344146	     30.68165634	    -22.87029444	     -0.89569066
      2.65000000	      2.45636323	     -2.25403259	     81.96880505	      0.18594355	      0.65513281	      0.57215447	      5.54700285	      4.89703216	     -0.73879642	     13.86255150	      0.24194717	     35.34327934	      1.03821006	      0.00000000	      1.02736381	     -2.02395904	     -3.34709690	      7.83063720	      0.13667040	     37.56063745	      4.49417706	      0.00000000	     -0.14391272	      1.11323544	      0.69394362	     -0.26726031	      1.48060313	      0.73731509	     -0.23643421	      2.70672064	      0.73731509	     -0.16447785	      2.70672064	      0.60720067	     -0.13363735	      2.27010970	      0.56382919	     -0.08223173	      1.72440169	      0.52045771	     -1.02795417	     12.59314190	      3.85950622	      0.00000000	      0.00000000	     19.11336411	     -2.56542131	      1.94800935	     -7.11024394	    -17.15600835	     19.38571411	     33.87124516	     84.72564119	     -9.09334408	      0.19670930	      8.19428369	     -0.31078695	    174.30139360	      0.33631052	     31.31785594	    -23.78807273	     -0.88128569
      2.66666667	      2.30819092	     -2.12615120	     81.07580746	      0.18734639	      0.65529223	      0.57086399	      5.38452902	      4.76403323	     -0.17375289	     13.98221369	      0.24403567	     35.40002699	      1.56715444	      0.00000000	      0.59211989	     -1.87420675	     -4.30567086	      7.57991068	      0.13229440	     37.53549406	      4.79713537	      0.00000000	     -0.15097588	      1.09417052	      0.83661289	     -0.28037731	      1.45524680	      0.88890120	     -0.24803828	      2.66036621	      0.88890120	     -0.17255034	      2.66036621	      0.73203628	     -0.14019620	      2.23123253	      0.67974797	     -0.08626762	      1.69487014	      0.62745967	     -1.07840562	     12.37747579	      4.65298991	      0.00000000	      0.00000000	     18.77472836	     -2.40079306	      2.03752008	     -7.33609572	    -16.97364177	     18.61036578	     33.99985081	     86.13485159	     -8.24561996	      1.02417911	      7.96630466	     -0.39287959	    174.62120504	      0.34241168	     31.32885052	    -24.54807970	     -1.35062875
      2.68333333	      2.14140282	     -1.98190552	     80.66789159	      0.18769056	      0.65561520	      0.56963280	      5.16569545	      4.48828463	     -0.44530701	     14.01134322	      0.24454407	     35.58828748	      2.81139774	      0.00000000	      0.12781240	     -1.54780511	     -3.28936431	      7.11036459	      0.12409927	     37.00832582	      3.20166399	      0.00000000	     -0.15547895	      1.07445259	      0.89286837	     -0.28873996	      1.42902195	      0.94867264	     -0.25543637	      2.61242404	      0.94867264	     -0.17769689	      2.61242404	      0.78125982	     -0.14437775	      2.19102373	      0.72545555	     -0.08884067	      1.66432707	      0.66965128	     -1.11057060	     12.15442263	      4.96586600	      0.00000000	      0.00000000	     18.52562442	     -2.22440127	      2.02759300	     -7.22122059	    -17.05405889	     19.28236394	     33.74111620	     86.31058019	     -7.69202223	      1.24951521	      7.91330088	     -0.38655631	    174.27210094	      0.34993954	     33.12777456	    -24.58846704	     -1.86183033
      2.70000000	      1.99660714	     -1.89010454	     80.12283490	      0.18818197	      0.65591377	      0.56851891	      5.04138113	      4.35013261	      0.38484573	     14.11114783	      0.24628599	     35.63846462	      2.92710602	      0.00000000	     -0.34066792	     -1.32097288	     -3.56377469	      6.57473695	      0.11475081	     36.75350791	      3.22387989	      0.00000000	     -0.15190455	      1.05592782	      0.97285205	     -0.28210194	      1.40438400	      1.03365530	     -0.24956399	      2.56738291	      1.03365530	     -0.17361171	      2.56738291	      0.85124554	     -0.14105857	      2.15324802	      0.79044229	     -0.08679826	      1.63563220	      0.72963903	     -1.08503902	     11.94486672	      5.41071122	      0.00000000	      0.00000000	     18.27386709	     -2.12593301	      1.82414035	     -6.88030844	    -17.30606822	     21.17409950	     33.30110284	     85.66211940	     -7.61043571	      1.09279960	      7.96942054	     -0.36431744	    174.65781819	      0.35605572	     33.87409555	    -24.35582819	     -2.89176859
